<svg width="76" height="76" viewBox="0 0 76 76" fill="none" xmlns="http://www.w3.org/2000/svg">
<path d="M64.0584 39.2918C54.7138 54.7364 46.9595 46.0423 39.5439 46.1339C31.7125 46.2307 22.9579 56.0473 15.0592 39" stroke="#DFDFEC" stroke-width="5" stroke-linecap="round" stroke-linejoin="round"/>
<path d="M68.9162 52.1845C51.3063 70.5798 50.5789 57.9528 40 58C29.0877 58.0487 27.7919 72.9399 9.41722 51.8302" stroke="#DFDFEC" stroke-width="5" stroke-linecap="round" stroke-linejoin="round"/>
<path d="M57 31C51.0001 40.5 45.1114 33.5437 39.5 33.5C33.9192 33.4565 26.5001 40 22.0295 31" stroke="#DFDFEC" stroke-width="4" stroke-linecap="round" stroke-linejoin="round"/>
<path d="M34.55 24L44.45 24C52.7 24 56 22.2 56 17.7L56 12.3C56 7.8 52.7 6 44.45 6L34.55 6C26.3 6 23 7.8 23 12.3L23 17.7C23 22.2 26.3 24 34.55 24Z" fill="#DFDFEC"/>
</svg>
