<svg width="74" height="74" viewBox="0 0 74 74" fill="none" xmlns="http://www.w3.org/2000/svg">
<path d="M63.2083 29.2917C67.8333 29.2917 67.8333 30.8333 67.8333 33.9167V40.0833C67.8333 43.1667 67.8333 44.7083 63.2083 44.7083" stroke="#DFDFEC" stroke-width="5" stroke-linecap="round" stroke-linejoin="round"/>
<path d="M16 26C17.3333 32.8775 17.3333 40.1225 16 47" stroke="#DFDFEC" stroke-width="7" stroke-linecap="round" stroke-linejoin="round"/>
<path d="M27 26C28.3333 32.8775 28.3333 40.1225 27 47" stroke="#DFDFEC" stroke-width="7" stroke-linecap="round" stroke-linejoin="round"/>
<path d="M38 26C39.3333 32.8775 39.3333 40.1225 38 47" stroke="#DFDFEC" stroke-width="7" stroke-linecap="round" stroke-linejoin="round"/>
<path d="M49 26C50.3333 32.8775 50.3333 40.1225 49 47" stroke="#DFDFEC" stroke-width="7" stroke-linecap="round" stroke-linejoin="round"/>
<path d="M43.125 59H22.875C9.375 59 6 55.8571 6 43.2857V30.7143C6 18.1429 9.375 15 22.875 15H43.125C56.625 15 60 18.1429 60 30.7143V43.2857C60 55.8571 56.625 59 43.125 59Z" stroke="#DFDFEC" stroke-width="5" stroke-linecap="round" stroke-linejoin="round"/>
</svg>
